<?xml version="1.0" encoding="UTF-8"?>
<svg version="1.1" xmlns="http://www.w3.org/2000/svg" width="467" height="466">
<path d="M0 0 C1.37112946 -0.00855011 1.37112946 -0.00855011 2.7699585 -0.01727295 C4.69949204 -0.0266677 6.62904123 -0.03323477 8.55859375 -0.03710938 C11.43520202 -0.04671087 14.31106195 -0.07774407 17.1875 -0.109375 C34.34199343 -0.2083073 51.00379352 1.76397715 67.671875 5.890625 C68.71279297 6.1469873 69.75371094 6.40334961 70.82617188 6.66748047 C103.02032206 14.88216876 133.58899785 30.04331134 159.234375 51.203125 C160.08225586 51.89873535 160.08225586 51.89873535 160.94726562 52.60839844 C173.26868522 62.77662619 184.39106301 73.58974822 194.234375 86.203125 C195.03488281 87.19828125 195.83539063 88.1934375 196.66015625 89.21875 C225.86043352 125.83324935 245.01882578 174.21693149 245.47265625 221.3203125 C245.4824501 222.16684891 245.49224396 223.01338531 245.50233459 223.88557434 C246.11447262 290.58424072 224.48358352 350.74793917 177.68383789 398.98779297 C171.88535115 404.84713901 165.73572697 410.12955613 159.234375 415.203125 C158.23921875 416.00363281 157.2440625 416.80414063 156.21875 417.62890625 C123.23118988 443.93667828 82.94587801 459.90165482 41.234375 465.203125 C40.55080933 465.29045395 39.86724365 465.3777829 39.16296387 465.46775818 C33.8982865 466.09860866 28.71413722 466.37537585 23.4140625 466.40625 C22.1947126 466.41683945 22.1947126 466.41683945 20.95072937 466.42764282 C3.55033007 466.54434264 -13.6351601 466.65090211 -30.765625 463.203125 C-31.75981445 463.00444824 -32.75400391 462.80577148 -33.77832031 462.60107422 C-95.91106368 449.74901156 -148.44797289 413.48284619 -183.8203125 361.1640625 C-205.65944296 326.81953784 -220.60837645 286.13825152 -221.00390625 245.0859375 C-221.0137001 244.23940109 -221.02349396 243.39286469 -221.03358459 242.52067566 C-221.54512826 186.78278872 -207.60581872 134.5798681 -172.765625 90.203125 C-171.79882812 88.94628906 -171.79882812 88.94628906 -170.8125 87.6640625 C-165.48518045 80.84249478 -159.69962996 74.49491555 -153.765625 68.203125 C-153.0746875 67.46964844 -152.38375 66.73617187 -151.671875 65.98046875 C-146.42351879 60.57079012 -140.67200949 55.87383168 -134.765625 51.203125 C-133.7653125 50.39746094 -132.765 49.59179688 -131.734375 48.76171875 C-95.31823443 19.75196093 -46.88569314 0.23438959 0 0 Z " fill="#FDFDFD" transform="translate(220.765625,-0.203125)"/>
<path d="M0 0 C33.66 0 67.32 0 102 0 C102 25.08 102 50.16 102 76 C91.11 76 80.22 76 69 76 C69 61.48 69 46.96 69 32 C57.12 32 45.24 32 33 32 C32.8871115 44.57757671 32.8871115 44.57757671 32.8671875 57.15429688 C32.87964083 62.28994166 32.88156776 67.42398252 32.81835938 72.55932617 C32.76804076 76.70335395 32.7669788 80.8448202 32.79904556 84.98900032 C32.8027763 86.56416434 32.78921516 88.13947385 32.75750351 89.71432304 C32.46676349 98.80375749 32.46676349 98.80375749 36.12384033 106.88088989 C38.64205829 109.17490541 41.18393269 111.08956358 44 113 C45.73970925 114.40369994 47.47018117 115.81899412 49.1875 117.25 C50.09886719 117.98734375 51.01023438 118.7246875 51.94921875 119.484375 C55.52056624 122.42925052 59.0121164 125.45720087 62.5 128.5 C67.65072116 132.99091803 72.86550586 137.3774913 78.17578125 141.6796875 C83.28746067 145.87932453 88.30748134 150.19248585 93.28881836 154.54589844 C94.48776696 155.5647225 95.71564362 156.55001586 96.96313477 157.50878906 C101.83766198 161.34137145 101.83766198 161.34137145 102.68359375 164.7734375 C102.45572917 167.18229167 102.22786458 169.59114583 102 172 C111.4780061 167.69391784 111.4780061 167.69391784 117.30735397 159.59770012 C117.76494006 155.40803725 117.80168301 151.40318915 117.68115234 147.19897461 C117.68707402 145.61142668 117.69915892 144.02389168 117.71690369 142.43643188 C117.74752434 138.14804485 117.69245809 133.8646171 117.62144423 129.57687068 C117.56185765 125.08854074 117.58181544 120.6005638 117.59317017 116.11195374 C117.60264458 107.62218541 117.54106092 99.13449422 117.45364916 90.64523083 C117.35757478 80.97653773 117.34116245 71.30821593 117.3312881 61.63911045 C117.30920872 41.7585526 117.18758724 21.8796401 117 2 C120.10086917 3.52432767 122.99552158 5.20276139 125.91015625 7.0625 C126.8851709 7.68455322 127.86018555 8.30660645 128.86474609 8.94750977 C129.92000488 9.62483154 130.97526367 10.30215332 132.0625 11 C132.612547 11.35246796 133.16259399 11.70493591 133.72930908 12.06808472 C143.27965187 18.19164853 152.73632625 24.4495293 162.16137695 30.7644043 C168.83455575 35.2337646 175.52719821 39.67177449 182.2421875 44.078125 C183.03096283 44.59571884 183.81973816 45.11331268 184.63241577 45.64659119 C188.52405311 48.19915848 192.41734799 50.74917232 196.31201172 53.29711914 C197.74447739 54.23582269 199.17693232 55.17454262 200.609375 56.11328125 C201.57494827 56.74348175 201.57494827 56.74348175 202.56002808 57.38641357 C203.78032619 58.18663071 204.99514856 58.99527492 206.20372009 59.81309509 C207.44157036 60.63101359 208.70654955 61.40882014 209.99073792 62.15187073 C211.88802758 63.31824533 213.45870827 64.39092248 215 66 C215.79467773 69.50512695 215.79467773 69.50512695 215.68359375 73.48828125 C215.66611084 74.77516846 215.64862793 76.06205566 215.63061523 77.38793945 C215.53502319 79.82559692 215.53502319 79.82559692 215.4375 82.3125 C215.293125 87.489375 215.14875 92.66625 215 98 C204.44 98 193.88 98 183 98 C183.165 95.56625 183.33 93.1325 183.5 90.625 C183.45438637 86.79654738 183.21646201 83.39517573 180.62402344 80.421875 C177.61211417 78.04916549 174.34359271 76.32083671 170.9296875 74.6015625 C163.97845067 70.93316018 157.53977076 66.35984718 151 62 C151 86.75 151 111.5 151 137 C154.96 133.04 158.92 129.08 163 125 C167.125 121.4375 167.125 121.4375 168.9921875 119.8515625 C172.47031734 116.64410424 175.56348749 113.08537316 178.703125 109.55078125 C180.73825274 107.2906819 182.82772347 105.12743596 185 103 C183.38802117 108.26233088 180.05112277 112.12790118 176.6875 116.375 C176.06883057 117.16285889 175.45016113 117.95071777 174.81274414 118.76245117 C159.35397456 138.2974821 159.35397456 138.2974821 153.43930054 143.06332397 C150.26905573 146.87998444 150.32648542 149.90465551 150.43237305 154.64575195 C150.43164291 155.5047963 150.43091278 156.36384064 150.43016052 157.24891663 C150.43363516 160.07935429 150.47248967 162.90813224 150.51171875 165.73828125 C150.52104733 167.70410768 150.52816323 169.66994575 150.53315735 171.63578796 C150.55222352 176.80311325 150.60132137 181.96973282 150.65667725 187.13677979 C150.70787774 192.41205296 150.73067312 197.68744046 150.75585938 202.96289062 C150.80944021 213.30890336 150.89474869 223.65439293 151 234 C152.24498033 233.21905068 153.48971776 232.43771415 154.734375 231.65625 C155.53115662 231.1569397 156.32793823 230.65762939 157.14886475 230.14318848 C158.89368488 229.04095116 160.63182413 227.92807165 162.36334229 226.80505371 C169.83770121 221.97362084 169.83770121 221.97362084 173.88964844 220.21289062 C177.51685035 218.45924797 179.5643608 217.23081047 182 214 C184.03347429 206.72495144 183.4490341 198.97143396 183.25 191.5 C183.23801579 189.41669096 183.23145022 187.33334327 183.23046875 185.25 C183.21631306 180.16407647 183.12818568 175.08427571 183 170 C177.39 170 171.78 170 166 170 C166 159.44 166 148.88 166 138 C182.17 138 198.34 138 215 138 C215.40108809 160.67930341 215.40108809 160.67930341 215.48828125 170.36132812 C215.54802007 176.96346591 215.61861286 183.56421442 215.75439453 190.1652832 C215.86320793 195.48871478 215.92287333 200.81065671 215.94877243 206.13511467 C215.96722302 208.16426995 216.00325636 210.19334534 216.05730057 212.2218647 C216.46204434 228.04585649 216.46204434 228.04585649 213.04037476 232.61920166 C210.44439296 234.46937427 207.91596607 235.72358213 205 237 C203.42458784 238.01079833 201.86823949 239.05199447 200.33349609 240.12353516 C198.73111398 241.18018452 197.12772334 242.23530575 195.5234375 243.2890625 C194.2085862 244.15516899 194.2085862 244.15516899 192.86717224 245.03877258 C190.0373706 246.90225411 187.20621217 248.76366237 184.375 250.625 C182.40967914 251.91859451 180.44442914 253.21229669 178.47924805 254.50610352 C165.30709356 263.17614355 152.12728346 271.83459518 138.93701172 280.47705078 C138.33044739 280.87466614 137.72388306 281.27228149 137.09893799 281.6819458 C135.40838113 282.78980978 133.71714593 283.89663844 132.02587891 285.00341797 C128.54902059 287.29757218 125.10527738 289.63789749 121.6784668 292.00610352 C120 293 120 293 118 293 C118 261.32 118 229.64 118 197 C113.71 199.64 109.42 202.28 105 205 C104.34 205.33 103.68 205.66 103 206 C102.67 235.7 102.34 265.4 102 296 C68.34 296 34.68 296 0 296 C0 276.53 0 257.06 0 237 C-1.65 237.33 -3.3 237.66 -5 238 C-8.63 238 -12.26 238 -16 238 C-16 256.15 -16 274.3 -16 293 C-20.08293726 291.3668251 -23.05591431 289.80671835 -26.671875 287.421875 C-27.21884537 287.06272507 -27.76581573 286.70357513 -28.32936096 286.33354187 C-30.13916214 285.14339804 -31.94456607 283.94675643 -33.75 282.75 C-35.02867944 281.90731392 -36.30757388 281.064954 -37.58666992 280.22290039 C-44.6388612 275.57426921 -51.66819385 270.8914821 -58.69140625 266.19921875 C-59.41252594 265.71762299 -60.13364563 265.23602722 -60.87661743 264.73983765 C-64.3635766 262.41044844 -67.84842943 260.07803161 -71.32910156 257.73925781 C-77.99278972 253.27011911 -84.69584229 248.871365 -91.484375 244.59375 C-92.12043167 244.1900267 -92.75648834 243.78630341 -93.41181946 243.37034607 C-97.21507383 240.99346382 -101.07431708 238.90060388 -105.12550354 236.97518921 C-108.46204486 235.29459804 -110.45915566 233.83682772 -113 231 C-114.00216314 226.99319474 -113.79917772 222.98904972 -113.66918945 218.88793945 C-113.55415813 213.71512022 -113.55415813 213.71512022 -115.9921875 209.23828125 C-118.57644219 207.28667052 -121.20800172 205.63626012 -124 204 C-129.42044826 199.41265565 -133.27999293 194.00924219 -137 188 C-134.08033253 189.42493731 -131.26189443 190.96943972 -128.453125 192.6015625 C-127.69161133 193.04322754 -126.93009766 193.48489258 -126.14550781 193.93994141 C-125.18999023 194.49601074 -124.23447266 195.05208008 -123.25 195.625 C-118.67125 198.285625 -118.67125 198.285625 -114 201 C-113.67 192.42 -113.34 183.84 -113 175 C-102.11 175 -91.22 175 -80 175 C-79.67 186.88 -79.34 198.76 -79 211 C-71.70806603 212.32580618 -64.65705454 213.45481626 -57.3125 214.125 C-55.95608398 214.25455078 -55.95608398 214.25455078 -54.57226562 214.38671875 C-52.38186848 214.595328 -50.19117156 214.79971951 -48 215 C-48.02074034 213.52955199 -48.02074034 213.52955199 -48.04189968 212.02939796 C-48.37512721 188.15912573 -48.62149261 164.2891556 -48.77718258 140.4170475 C-48.85447869 128.87240484 -48.95982258 117.32929997 -49.1315918 105.78564453 C-49.28126458 95.72215662 -49.3779098 85.65978236 -49.41132742 75.59521234 C-49.43085921 70.26704472 -49.47662853 64.94206239 -49.58595085 59.61491776 C-49.68811957 54.59548311 -49.71911316 49.58052966 -49.69661522 44.56015396 C-49.70072739 42.72256557 -49.7303826 40.88482075 -49.78808212 39.04813385 C-50.19151722 25.53832111 -50.19151722 25.53832111 -46.52090764 21.28684378 C-42.9326832 18.20766761 -38.98264769 15.96948807 -34.75447476 13.88850093 C-32.48354907 12.73845897 -30.43140081 11.3447308 -28.359375 9.87109375 C-27.43705078 9.24944336 -27.43705078 9.24944336 -26.49609375 8.61523438 C-25.28351307 7.79735277 -24.07269768 6.97685029 -22.86328125 6.15429688 C-20.25303355 4.40009815 -18.00017848 3.00005949 -15 2 C-15 71.63 -15 141.26 -15 213 C8.75537106 208.81960573 8.75537106 208.81960573 32 203 C33.16402344 202.67 34.32804688 202.34 35.52734375 202 C45.24382024 199.20200452 54.73656079 196.43223092 63.86328125 192.015625 C66 191 66 191 69 190 C69.48902038 181.20940023 69.48902038 181.20940023 66.09375 173.3828125 C63.49850751 171.07501776 60.81887833 169.02774899 58 167 C56.24184624 165.57248411 54.49191408 164.13478766 52.75 162.6875 C51.83347656 161.945 50.91695312 161.2025 49.97265625 160.4375 C46.67204959 157.73108928 43.42430809 154.96958695 40.1875 152.1875 C39.30759399 151.43122314 39.30759399 151.43122314 38.40991211 150.65966797 C36.00148188 148.58742744 33.59502178 146.51290556 31.18847656 144.43847656 C24.4269296 138.61308754 17.64693924 132.82976939 10.6953125 127.23046875 C9.80585938 126.49441406 8.91640625 125.75835937 8 125 C7.34617592 124.55769515 6.69235184 124.1153903 6.0187149 123.65968227 C2.80176585 121.28530926 0.40602822 119.40783202 -0.72740173 115.4778614 C-0.98402651 112.41611899 -0.99013907 109.44485624 -0.90820312 106.37329102 C-0.90937134 105.2213475 -0.91053955 104.06940399 -0.91174316 102.8825531 C-0.90618526 99.08842921 -0.84403172 95.29747851 -0.78125 91.50390625 C-0.76632357 88.8683392 -0.75493846 86.23274991 -0.74694824 83.59715271 C-0.72213764 77.37779868 -0.65656595 71.15957708 -0.57615232 64.9407205 C-0.47776254 57.16187005 -0.43412659 49.38283351 -0.390625 41.60351562 C-0.3128311 27.73479616 -0.1525646 13.86854577 0 0 Z " fill="#25487B" transform="translate(181,85)"/>
<path d="M0 0 C1.37112946 -0.00855011 1.37112946 -0.00855011 2.7699585 -0.01727295 C4.69949204 -0.0266677 6.62904123 -0.03323477 8.55859375 -0.03710938 C11.43520202 -0.04671087 14.31106195 -0.07774407 17.1875 -0.109375 C34.34199343 -0.2083073 51.00379352 1.76397715 67.671875 5.890625 C68.71279297 6.1469873 69.75371094 6.40334961 70.82617188 6.66748047 C103.02032206 14.88216876 133.58899785 30.04331134 159.234375 51.203125 C160.08225586 51.89873535 160.08225586 51.89873535 160.94726562 52.60839844 C173.26868522 62.77662619 184.39106301 73.58974822 194.234375 86.203125 C195.03488281 87.19828125 195.83539063 88.1934375 196.66015625 89.21875 C225.86043352 125.83324935 245.01882578 174.21693149 245.47265625 221.3203125 C245.4824501 222.16684891 245.49224396 223.01338531 245.50233459 223.88557434 C246.11447262 290.58424072 224.48358352 350.74793917 177.68383789 398.98779297 C171.88535115 404.84713901 165.73572697 410.12955613 159.234375 415.203125 C158.23921875 416.00363281 157.2440625 416.80414063 156.21875 417.62890625 C123.23118988 443.93667828 82.94587801 459.90165482 41.234375 465.203125 C40.55080933 465.29045395 39.86724365 465.3777829 39.16296387 465.46775818 C33.8982865 466.09860866 28.71413722 466.37537585 23.4140625 466.40625 C22.1947126 466.41683945 22.1947126 466.41683945 20.95072937 466.42764282 C3.55033007 466.54434264 -13.6351601 466.65090211 -30.765625 463.203125 C-31.75981445 463.00444824 -32.75400391 462.80577148 -33.77832031 462.60107422 C-95.91106368 449.74901156 -148.44797289 413.48284619 -183.8203125 361.1640625 C-205.65944296 326.81953784 -220.60837645 286.13825152 -221.00390625 245.0859375 C-221.0137001 244.23940109 -221.02349396 243.39286469 -221.03358459 242.52067566 C-221.54512826 186.78278872 -207.60581872 134.5798681 -172.765625 90.203125 C-171.79882812 88.94628906 -171.79882812 88.94628906 -170.8125 87.6640625 C-165.48518045 80.84249478 -159.69962996 74.49491555 -153.765625 68.203125 C-153.0746875 67.46964844 -152.38375 66.73617187 -151.671875 65.98046875 C-146.42351879 60.57079012 -140.67200949 55.87383168 -134.765625 51.203125 C-133.7653125 50.39746094 -132.765 49.59179688 -131.734375 48.76171875 C-95.31823443 19.75196093 -46.88569314 0.23438959 0 0 Z M-34.765625 23.203125 C-35.55308105 23.38504395 -36.34053711 23.56696289 -37.15185547 23.75439453 C-42.43399028 25.01065571 -47.6010556 26.53213866 -52.765625 28.203125 C-53.59175293 28.46544922 -54.41788086 28.72777344 -55.26904297 28.99804688 C-77.5690075 36.20258681 -98.20769302 46.88914406 -116.765625 61.203125 C-117.7246875 61.93273438 -118.68375 62.66234375 -119.671875 63.4140625 C-142.14585691 80.96319035 -160.51810933 101.54396327 -174.765625 126.203125 C-175.21292969 126.97720703 -175.66023438 127.75128906 -176.12109375 128.54882812 C-187.40027526 148.37428021 -195.31491969 169.82485398 -199.765625 192.203125 C-199.92788574 193.01120605 -200.09014648 193.81928711 -200.25732422 194.65185547 C-204.75017197 218.24742017 -204.5201913 244.16922156 -200.20556641 267.76757812 C-199.77097824 270.1734891 -199.39578519 272.58318199 -199.02734375 275 C-195.76877393 294.88614824 -188.52959251 314.79490674 -178.75439453 332.40966797 C-177.72597611 334.27504124 -176.7428073 336.16013692 -175.76171875 338.05078125 C-166.98655871 354.65049321 -155.46187787 369.2576929 -142.32617188 382.61181641 C-140.91928658 384.04643442 -139.53621474 385.50431221 -138.15625 386.96484375 C-132.10794576 393.26021924 -125.50843037 398.6299906 -118.54492188 403.86376953 C-117.40051227 404.72521727 -116.26075999 405.59290606 -115.12695312 406.46826172 C-71.98718766 439.7471322 -15.56362771 452.42113036 37.97705078 446.01855469 C63.24271731 442.57945907 87.83934679 435.41058007 110.33105469 423.23291016 C112.28184377 422.17744218 114.24584019 421.149632 116.2109375 420.12109375 C126.29242854 414.74682798 135.31847389 408.32602764 144.234375 401.203125 C144.8025293 400.75211426 145.37068359 400.30110352 145.95605469 399.83642578 C159.46712218 389.02356257 171.69419522 376.83388492 181.97558594 362.90185547 C183.20110211 361.24802662 184.45333964 359.61778156 185.7109375 357.98828125 C198.4929389 341.12637853 207.1961013 322.05166162 214.234375 302.203125 C214.49831055 301.47432129 214.76224609 300.74551758 215.03417969 299.99462891 C219.20241087 288.34776971 221.29971159 276.38709166 223.234375 264.203125 C223.35441895 263.50735352 223.47446289 262.81158203 223.59814453 262.09472656 C231.16694423 217.85503593 221.14702717 171.39498425 200.234375 132.203125 C199.70457031 131.20152344 199.70457031 131.20152344 199.1640625 130.1796875 C184.79187508 103.1930622 164.17284614 78.99940741 139.234375 61.203125 C138.57953125 60.73100586 137.9246875 60.25888672 137.25 59.77246094 C113.60199528 42.89214178 87.12619255 30.66917828 58.796875 24.140625 C57.69520996 23.88575317 57.69520996 23.88575317 56.57128906 23.62573242 C27.35254286 16.94340388 -5.52893737 16.29552476 -34.765625 23.203125 Z " fill="#27477C" transform="translate(220.765625,-0.203125)"/>
<path d="M0 0 C16.17 0 32.34 0 49 0 C49.40108809 22.67930341 49.40108809 22.67930341 49.48828125 32.36132812 C49.54802007 38.96346591 49.61861286 45.56421442 49.75439453 52.1652832 C49.86320793 57.48871478 49.92287333 62.81065671 49.94877243 68.13511467 C49.96722302 70.16426995 50.00325636 72.19334534 50.05730057 74.2218647 C50.46204434 90.04585649 50.46204434 90.04585649 47.04037476 94.61920166 C44.44439296 96.46937427 41.91596607 97.72358213 39 99 C37.42458784 100.01079833 35.86823949 101.05199447 34.33349609 102.12353516 C32.73111398 103.18018452 31.12772334 104.23530575 29.5234375 105.2890625 C28.64686996 105.86646683 27.77030243 106.44387115 26.86717224 107.03877258 C24.0373706 108.90225411 21.20621217 110.76366237 18.375 112.625 C16.40967914 113.91859451 14.44442914 115.21229669 12.47924805 116.50610352 C-0.69290644 125.17614355 -13.87271654 133.83459518 -27.06298828 142.47705078 C-27.66955261 142.87466614 -28.27611694 143.27228149 -28.90106201 143.6819458 C-30.59161887 144.78980978 -32.28285407 145.89663844 -33.97412109 147.00341797 C-37.45097941 149.29757218 -40.89472262 151.63789749 -44.3215332 154.00610352 C-46 155 -46 155 -48 155 C-48 123.32 -48 91.64 -48 59 C-52.29 61.64 -56.58 64.28 -61 67 C-61.99 67.495 -61.99 67.495 -63 68 C-63.33 97.7 -63.66 127.4 -64 158 C-97.66 158 -131.32 158 -166 158 C-166 138.53 -166 119.06 -166 99 C-168.475 99.495 -168.475 99.495 -171 100 C-174.63 100 -178.26 100 -182 100 C-182 118.15 -182 136.3 -182 155 C-186.08293726 153.3668251 -189.05591431 151.80671835 -192.671875 149.421875 C-193.21884537 149.06272507 -193.76581573 148.70357513 -194.32936096 148.33354187 C-196.13916214 147.14339804 -197.94456607 145.94675643 -199.75 144.75 C-201.02867944 143.90731392 -202.30757388 143.064954 -203.58666992 142.22290039 C-210.6388612 137.57426921 -217.66819385 132.8914821 -224.69140625 128.19921875 C-225.41252594 127.71762299 -226.13364563 127.23602722 -226.87661743 126.73983765 C-230.3635766 124.41044844 -233.84842943 122.07803161 -237.32910156 119.73925781 C-243.99278972 115.27011911 -250.69584229 110.871365 -257.484375 106.59375 C-258.12043167 106.1900267 -258.75648834 105.78630341 -259.41181946 105.37034607 C-263.21507383 102.99346382 -267.07431708 100.90060388 -271.12550354 98.97518921 C-274.46204486 97.29459804 -276.45915566 95.83682772 -279 93 C-280.00216314 88.99319474 -279.79917772 84.98904972 -279.66918945 80.88793945 C-279.55415813 75.71512022 -279.55415813 75.71512022 -281.9921875 71.23828125 C-284.57644219 69.28667052 -287.20800172 67.63626012 -290 66 C-295.42044826 61.41265565 -299.27999293 56.00924219 -303 50 C-299.50116255 51.58012014 -298.69563342 52.60873316 -297 56 C-295.68199275 56.69647621 -294.34581877 57.35891182 -293 58 C-291.67144736 58.85911839 -290.35818004 59.74219428 -289.05859375 60.64453125 C-272.58924782 71.94867008 -256.48825684 78.02721805 -237.1875 82.75 C-236.34074707 82.96076172 -235.49399414 83.17152344 -234.62158203 83.38867188 C-222.74558358 86.20037731 -210.76636057 86.23790466 -198.625 86.25 C-197.82830902 86.25133942 -197.03161804 86.25267883 -196.21078491 86.25405884 C-184.54730912 86.24981571 -173.20879772 85.74450461 -161.72875977 83.50927734 C-159.56102733 83.10470636 -157.3849479 82.74490971 -155.20678711 82.40087891 C-145.10296909 80.78947326 -135.60880654 78.31707432 -125.9375 75 C-125.23032837 74.76078827 -124.52315674 74.52157654 -123.79455566 74.27511597 C-96.08278088 64.86706074 -70.40929158 51.59076317 -47 34 C-46.36980957 33.52675293 -45.73961914 33.05350586 -45.09033203 32.56591797 C-37.84871318 27.08500645 -30.99263096 21.34893786 -24.40234375 15.09375 C-22 13 -22 13 -17 10 C-17 38.71 -17 67.42 -17 97 C-11.06 93.37 -5.12 89.74 1 86 C5.22490234 83.88464844 5.22490234 83.88464844 9.53515625 81.7265625 C14.28000313 78.56717922 14.28000313 78.56717922 16.77947998 73.6986084 C18.0269138 66.95111827 17.70700662 60.19780145 17.4375 53.375 C17.41044318 51.30085953 17.39019735 49.2266184 17.37695312 47.15234375 C17.32994227 42.09698762 17.19039206 37.05190548 17 32 C11.39 32 5.78 32 0 32 C0 21.44 0 10.88 0 0 Z " fill="#232222" transform="translate(347,223)"/>
<path d="M0 0 C33.66 0 67.32 0 102 0 C102 25.08 102 50.16 102 76 C91.11 76 80.22 76 69 76 C69 61.48 69 46.96 69 32 C57.12 32 45.24 32 33 32 C32.8871115 44.57757671 32.8871115 44.57757671 32.8671875 57.15429688 C32.87964083 62.28994166 32.88156776 67.42398252 32.81835938 72.55932617 C32.76804076 76.70335395 32.7669788 80.8448202 32.79904556 84.98900032 C32.8027763 86.56416434 32.78921516 88.13947385 32.75750351 89.71432304 C32.46676349 98.80375749 32.46676349 98.80375749 36.12384033 106.88088989 C38.64205829 109.17490541 41.18393269 111.08956358 44 113 C45.73970925 114.40369994 47.47018117 115.81899412 49.1875 117.25 C50.09886719 117.98734375 51.01023438 118.7246875 51.94921875 119.484375 C55.52056624 122.42925052 59.0121164 125.45720087 62.5 128.5 C67.65072116 132.99091803 72.86550586 137.3774913 78.17578125 141.6796875 C83.28767833 145.87950336 88.31017273 150.19089135 93.28881836 154.54785156 C94.48533264 155.56324134 95.71349095 156.54197273 96.96313477 157.49121094 C101.83762431 161.28925841 101.83762431 161.28925841 102.68359375 164.9921875 C102.56177734 166.41917969 102.56177734 166.41917969 102.4375 167.875 C102.37433594 168.84179688 102.31117188 169.80859375 102.24609375 170.8046875 C102.12427734 171.89136719 102.12427734 171.89136719 102 173 C96.00568066 176.34363268 90.00609259 179.67755956 84 183 C83.30825684 183.3830127 82.61651367 183.76602539 81.90380859 184.16064453 C80.10527828 185.15374009 78.3027809 186.13964164 76.5 187.125 C75.4790625 187.68445313 74.458125 188.24390625 73.40625 188.8203125 C71 190 71 190 69 190 C69.04382813 189.09378906 69.08765625 188.18757812 69.1328125 187.25390625 C69.17861706 179.87456125 69.17861706 179.87456125 66.09375 173.3828125 C63.49850751 171.07501776 60.81887833 169.02774899 58 167 C56.24184624 165.57248411 54.49191408 164.13478766 52.75 162.6875 C51.83347656 161.945 50.91695312 161.2025 49.97265625 160.4375 C46.67204959 157.73108928 43.42430809 154.96958695 40.1875 152.1875 C39.30759399 151.43122314 39.30759399 151.43122314 38.40991211 150.65966797 C36.00148188 148.58742744 33.59502178 146.51290556 31.18847656 144.43847656 C24.4269296 138.61308754 17.64693924 132.82976939 10.6953125 127.23046875 C9.80585938 126.49441406 8.91640625 125.75835937 8 125 C7.34617592 124.55769515 6.69235184 124.1153903 6.0187149 123.65968227 C2.80176585 121.28530926 0.40602822 119.40783202 -0.72740173 115.4778614 C-0.98402651 112.41611899 -0.99013907 109.44485624 -0.90820312 106.37329102 C-0.90937134 105.2213475 -0.91053955 104.06940399 -0.91174316 102.8825531 C-0.90618526 99.08842921 -0.84403172 95.29747851 -0.78125 91.50390625 C-0.76632357 88.8683392 -0.75493846 86.23274991 -0.74694824 83.59715271 C-0.72213764 77.37779868 -0.65656595 71.15957708 -0.57615232 64.9407205 C-0.47776254 57.16187005 -0.43412659 49.38283351 -0.390625 41.60351562 C-0.3128311 27.73479616 -0.1525646 13.86854577 0 0 Z " fill="#244F85" transform="translate(181,85)"/>
<path d="M0 0 C0 29.7 0 59.4 0 90 C-33.66 90 -67.32 90 -102 90 C-102 70.53 -102 51.06 -102 31 C-97.400625 30.2575 -92.80125 29.515 -88.0625 28.75 C-61.40991571 24.30979953 -24.24726719 0 0 0 Z " fill="#283D6E" transform="translate(283,291)"/>
<path d="M0 0 C4.40773603 1.76309441 7.93177747 3.80615535 11.796875 6.45703125 C13.14092026 7.36592348 14.4853337 8.27427145 15.83007812 9.18212891 C16.86515503 9.88332855 16.86515503 9.88332855 17.92114258 10.59869385 C21.22616379 12.82652655 24.55775256 15.01336121 27.890625 17.19921875 C28.56059509 17.63925232 29.23056519 18.07928589 29.9208374 18.53265381 C31.31153493 19.4460108 32.7023863 20.35913359 34.09338379 21.27203369 C36.31883407 22.73267832 38.54375059 24.19413306 40.76855469 25.65576172 C47.96724023 30.38463863 55.16777069 35.1106897 62.37091064 39.83277893 C65.56363963 41.92607438 68.75567721 44.0204227 71.94763184 46.11489868 C73.4688456 47.11264828 74.99040515 48.10987089 76.5123291 49.10653687 C78.63927144 50.49943017 80.76505803 51.89407159 82.890625 53.2890625 C83.50897217 53.69333969 84.12731934 54.09761688 84.7644043 54.5141449 C85.93488216 55.28325741 87.09988183 56.06078591 88.25865173 56.84742737 C89.47201238 57.65053281 90.71325146 58.4123991 91.97291565 59.14073181 C93.87538185 60.31029119 95.4520754 61.38873046 97 63 C97.79467773 66.50512695 97.79467773 66.50512695 97.68359375 70.48828125 C97.66611084 71.77516846 97.64862793 73.06205566 97.63061523 74.38793945 C97.56688721 76.01304443 97.50315918 77.63814941 97.4375 79.3125 C97.293125 84.489375 97.14875 89.66625 97 95 C86.44 95 75.88 95 65 95 C65.165 92.56625 65.33 90.1325 65.5 87.625 C65.44783103 83.822419 65.21071445 80.40736756 62.65625 77.43798828 C59.05232583 74.57549643 54.99029764 72.62576385 50.88671875 70.58740234 C44.01760356 66.81008612 37.54019673 62.31505726 31 58 C31.03108856 58.9505426 31.06217712 59.90108521 31.09420776 60.88043213 C31.37923913 69.88211694 31.58844052 78.88287601 31.72537041 87.88806534 C31.79814488 92.51714762 31.89664412 97.14256108 32.05615234 101.76953125 C32.2094135 106.24380598 32.29219844 110.71457799 32.3282814 115.19127655 C32.35395517 116.89006454 32.4041004 118.58868145 32.48022079 120.28595734 C33.0349525 133.17964906 33.0349525 133.17964906 29.63691902 137.88916779 C25.87921083 141.8861988 21.54535102 144.96922626 17 148 C15.38689548 149.18942325 13.77546825 150.38113745 12.16796875 151.578125 C10.84697037 152.47736647 9.52042239 153.36852972 8.1875 154.25 C7.49591797 154.72050781 6.80433594 155.19101563 6.09179688 155.67578125 C1.16361835 159 1.16361835 159 0 159 C0 106.53 0 54.06 0 0 Z " fill="#262626" transform="translate(299,88)"/>
<path d="M0 0 C0.66 0 1.32 0 2 0 C2 69.63 2 139.26 2 211 C25.75537106 206.81960573 25.75537106 206.81960573 49 201 C50.16402344 200.67 51.32804688 200.34 52.52734375 200 C62.16577314 197.22447928 71.61320864 194.49093693 80.66796875 190.11328125 C83 189 83 189 85.25390625 188.13671875 C89.21331331 186.49776078 92.96244589 184.49973065 96.75 182.5 C97.58257324 182.06075195 98.41514648 181.62150391 99.27294922 181.16894531 C104.95865869 178.14360094 110.57095015 175.01058648 116.125 171.75 C116.7859668 171.36263672 117.44693359 170.97527344 118.12792969 170.57617188 C119.3853138 169.82894814 120.63184063 169.06301093 121.86430454 168.27536201 C124 167 124 167 126.31336117 165.99452019 C129.10524961 164.60060276 130.9265432 163.34948942 133 161 C134.3661609 155.8758671 134.19786453 150.797117 134.11352539 145.53955078 C134.12085344 143.95245659 134.13213471 142.36537646 134.14706421 140.77833557 C134.17633937 136.4785675 134.15039903 132.18070377 134.11447453 127.88105249 C134.08631769 123.38463841 134.109031 118.88848692 134.12632751 114.39205933 C134.15134649 105.88152926 134.13067598 97.37174909 134.09355396 88.86128795 C134.05351204 79.17081216 134.06445897 69.48060331 134.07967007 59.79008126 C134.109813 39.85982972 134.07598513 19.93011093 134 0 C134.99 0.495 134.99 0.495 136 1 C136 53.14 136 105.28 136 159 C144.415 153.06 144.415 153.06 153 147 C156.45291504 144.7118335 156.45291504 144.7118335 159.97558594 142.37744141 C164.0891251 138.83707728 165.66315021 136.21915493 166.31126785 130.96832848 C166.56437809 126.95684258 166.49088932 122.97660133 166.390625 118.9609375 C166.39068142 117.2264426 166.39603766 115.49194056 166.40643311 113.75747681 C166.41954278 109.22202673 166.36131403 104.69027532 166.28753662 100.15551758 C166.22491069 95.51651464 166.23068086 90.87763258 166.23046875 86.23828125 C166.22008634 77.15769392 166.13423939 68.07954271 166 59 C166.33 59 166.66 59 167 59 C167.33 84.08 167.66 109.16 168 135 C171.96 131.04 175.92 127.08 180 123 C184.125 119.4375 184.125 119.4375 185.9921875 117.8515625 C189.47031734 114.64410424 192.56348749 111.08537316 195.703125 107.55078125 C197.73825274 105.2906819 199.82772347 103.12743596 202 101 C200.38802117 106.26233088 197.05112277 110.12790118 193.6875 114.375 C193.06883057 115.16285889 192.45016113 115.95071777 191.81274414 116.76245117 C176.35078298 136.30151526 176.35078298 136.30151526 170.44503784 141.05758667 C167.14791771 145.02541492 167.28755121 147.73212211 167.34057617 152.73754883 C167.33009247 153.60634674 167.31960876 154.47514465 167.30880737 155.37026978 C167.28007869 158.23288786 167.28634628 161.09429495 167.29296875 163.95703125 C167.27985239 165.94530247 167.26454836 167.93356037 167.24714661 169.92179871 C167.20727659 175.14805116 167.19710484 180.3739552 167.19311523 185.6003418 C167.18378762 190.93614281 167.14637637 196.27173878 167.11132812 201.60742188 C167.0467318 212.07160499 167.01350844 222.53563496 167 233 C166.67 233 166.34 233 166 233 C165.505 190.43 165.505 190.43 165 147 C161.37 150.3 157.74 153.6 154 157 C149.43983664 160.80776182 144.73844731 164.41850592 140 168 C139.31518555 168.51997559 138.63037109 169.03995117 137.92480469 169.57568359 C121.98412396 181.60536208 105.03638559 191.46356225 87 200 C86.31147949 200.3309668 85.62295898 200.66193359 84.91357422 201.00292969 C72.63469094 206.86872764 60.06404022 211.2214776 47 215 C46.27039063 215.21140625 45.54078125 215.4228125 44.7890625 215.640625 C33.69492725 218.78608863 22.41755519 220.50788225 11 222 C9.7529126 222.17418457 8.5058252 222.34836914 7.22094727 222.52783203 C3.10555723 223.03777408 -0.9850537 223.16137268 -5.12890625 223.16796875 C-5.88106918 223.17129715 -6.63323212 223.17462555 -7.40818787 223.17805481 C-8.99225256 223.18308489 -10.57632772 223.18546436 -12.16040039 223.18530273 C-14.53225116 223.18747233 -16.90362285 223.2056234 -19.27539062 223.22460938 C-54.05515437 223.35826947 -86.66535682 213.63992585 -114 192 C-113.505 191.01 -113.505 191.01 -113 190 C-107.72 192.97 -102.44 195.94 -97 199 C-96.67 190.42 -96.34 181.84 -96 173 C-85.11 173 -74.22 173 -63 173 C-62.67 184.88 -62.34 196.76 -62 209 C-40.3713888 212.93247476 -21.89138298 212 1 212 C0.67 142.04 0.34 72.08 0 0 Z " fill="#CBAA65" transform="translate(164,87)"/>
<path d="M0 0 C0.67804688 0.37511719 1.35609375 0.75023437 2.0546875 1.13671875 C5.02887604 2.77211051 8.01314749 4.38786551 11 6 C11.77859375 6.42925781 12.5571875 6.85851562 13.359375 7.30078125 C39.12827324 20.94052566 68.42089632 23.70094983 97 25 C97 43.15 97 61.3 97 80 C92.91706274 78.3668251 89.94408569 76.80671835 86.328125 74.421875 C85.78115463 74.06272507 85.23418427 73.70357513 84.67063904 73.33354187 C82.86083786 72.14339804 81.05543393 70.94675643 79.25 69.75 C77.97132056 68.90731392 76.69242612 68.064954 75.41333008 67.22290039 C68.3611388 62.57426921 61.33180615 57.8914821 54.30859375 53.19921875 C53.58747406 52.71762299 52.86635437 52.23602722 52.12338257 51.73983765 C48.6364234 49.41044844 45.15157057 47.07803161 41.67089844 44.73925781 C35.00866399 40.2711111 28.30704184 35.87359753 21.51953125 31.59765625 C20.88399826 31.19445663 20.24846527 30.79125702 19.59367371 30.37583923 C15.77013375 27.98674886 11.88673896 25.87552804 7.82209778 23.92355347 C4.51474285 22.2471785 2.52415133 20.81361822 0 18 C-1.62731155 12.10066052 -0.81229204 5.97614857 0 0 Z " fill="#283D6E" transform="translate(68,298)"/>
<path d="M0 0 C0 13.53 0 27.06 0 41 C-11.88 41 -23.76 41 -36 41 C-36 30.44 -36 19.88 -36 9 C-32.535 8.1646875 -32.535 8.1646875 -29 7.3125 C-22.31445792 5.67592051 -15.7587334 3.7559998 -9.23046875 1.57543945 C-5.92350876 0.49363234 -3.53308754 0 0 0 Z " fill="#FBFCFB" transform="translate(250,307)"/>
<path d="M0 0 C10.56 0 21.12 0 32 0 C32 11.88 32 23.76 32 36 C25.30197199 35.3301972 19.94719047 34.68256522 13.75 32.625 C13.08226563 32.41617188 12.41453125 32.20734375 11.7265625 31.9921875 C7.52836962 30.64218038 3.99713339 28.99856669 0 27 C0 18.09 0 9.18 0 0 Z " fill="#284273" transform="translate(68,260)"/>
<path d="M0 0 C0 3.59940869 -0.78993583 4.45532445 -2.88671875 7.30859375 C-3.8003418 8.55286133 -3.8003418 8.55286133 -4.73242188 9.82226562 C-5.37759766 10.68529297 -6.02277344 11.54832031 -6.6875 12.4375 C-7.31333984 13.29666016 -7.93917969 14.15582031 -8.58398438 15.04101562 C-14.70064035 23.29689998 -14.70064035 23.29689998 -19 26 C-19.99 26 -20.98 26 -22 26 C-24.12708293 27.76248102 -24.12708293 27.76248102 -26.1875 30 C-26.90292969 30.7425 -27.61835938 31.485 -28.35546875 32.25 C-28.89816406 32.8275 -29.44085938 33.405 -30 34 C-30.66 33.67 -31.32 33.34 -32 33 C-21.53091958 22.35771788 -21.53091958 22.35771788 -16.9375 18.5 C-10.62284655 13.11166968 -4.86371593 6.72105729 0 0 Z " fill="#BC8A47" transform="translate(365,188)"/>
<path d="M0 0 C8.66666667 4.33333333 17.33333333 8.66666667 26 13 C25.01 13.33 24.02 13.66 23 14 C22.67 14.66 22.34 15.32 22 16 C17.33818326 14.44015257 13.78746577 11.88286951 9.875 9 C8.64345064 8.10386221 7.41168744 7.20801823 6.1796875 6.3125 C5.13039063 5.549375 4.08109375 4.78625 3 4 C2.01 3.34 1.02 2.68 0 2 C0 1.34 0 0.68 0 0 Z " fill="#A17B48" transform="translate(50,277)"/>
<path d="M0 0 C3.49883745 1.58012014 4.30436658 2.60873316 6 6 C7.31903157 6.69453432 8.65557572 7.35599256 10 8 C11.59699597 9.02059676 13.18018683 10.06306756 14.75 11.125 C15.94882812 11.93324219 15.94882812 11.93324219 17.171875 12.7578125 C17.77515625 13.16773438 18.3784375 13.57765625 19 14 C18.01 14.495 18.01 14.495 17 15 C17.33 15.99 17.66 16.98 18 18 C15 18 15 18 12.94921875 16.34765625 C7.91438569 11.26064875 3.69765254 6.13375304 0 0 Z " fill="#2D2D29" transform="translate(44,273)"/>
<path d="M0 0 C0.99 0.33 1.98 0.66 3 1 C2.3125 2.9375 2.3125 2.9375 1 5 C0.236875 5.12375 -0.52625 5.2475 -1.3125 5.375 C-4.70219218 6.16330051 -5.95501371 7.54518413 -8.3125 10.0625 C-9.00988281 10.79597656 -9.70726562 11.52945313 -10.42578125 12.28515625 C-11.20501953 13.13400391 -11.20501953 13.13400391 -12 14 C-12.66 13.67 -13.32 13.34 -14 13 C-12.23223041 11.20521865 -10.46097441 9.4141293 -8.6875 7.625 C-8.18798828 7.11710938 -7.68847656 6.60921875 -7.17382812 6.0859375 C-4.87457613 3.77145867 -2.72478775 1.81652517 0 0 Z " fill="#C4944D" transform="translate(347,208)"/>
<path d="M0 0 C0.99 0.33 1.98 0.66 3 1 C-0.80411834 4.91939465 -4.81576108 8.49102731 -9 12 C-7.55575365 8.76138697 -5.74227753 6.38030837 -3.375 3.75 C-2.74335938 3.04359375 -2.11171875 2.3371875 -1.4609375 1.609375 C-0.97882813 1.07828125 -0.49671875 0.5471875 0 0 Z " fill="#26416F" transform="translate(398,368)"/>
<path d="M0 0 C4.95 1.98 4.95 1.98 10 4 C9.01 4.33 8.02 4.66 7 5 C6.67 5.66 6.34 6.32 6 7 C1.32307692 5.52307692 1.32307692 5.52307692 -0.3125 2.875 C-0.539375 2.25625 -0.76625 1.6375 -1 1 C-0.67 0.67 -0.34 0.34 0 0 Z " fill="#B38748" transform="translate(66,286)"/>
<path d="M0 0 C0.99 0.33 1.98 0.66 3 1 C1.02 3.31 -0.96 5.62 -3 8 C-3.99 7.67 -4.98 7.34 -6 7 C-4.75686537 3.27059611 -3.23014784 2.15343189 0 0 Z " fill="#233D6D" transform="translate(406,386)"/>
<path d="M0 0 C3.54433654 1.41773462 4.33806119 2.67612238 6 6 C8.0335948 7.26804566 8.0335948 7.26804566 10 8 C9.01 8.66 8.02 9.32 7 10 C5.83043409 8.52312468 4.66441854 7.04343707 3.5 5.5625 C2.8503125 4.73878906 2.200625 3.91507812 1.53125 3.06640625 C0 1 0 1 0 0 Z " fill="#4B4540" transform="translate(44,273)"/>
<path d="M0 0 C6.19887485 -0.37952295 10.4477112 0.1647887 16 3 C12.51580866 4.16691444 9.89777213 3.85285758 6.3125 3.1875 C5.33925781 3.01605469 4.36601563 2.84460938 3.36328125 2.66796875 C2.58339844 2.44753906 1.80351563 2.22710937 1 2 C0.67 1.34 0.34 0.68 0 0 Z " fill="#B49053" transform="translate(92,295)"/>
<path d="M0 0 C2.375 0.25 2.375 0.25 5 1 C6.3125 3.0625 6.3125 3.0625 7 5 C6.01 5 5.02 5 4 5 C1.8125 2.5 1.8125 2.5 0 0 Z " fill="#316499" transform="translate(378,76)"/>
<path d="M0 0 C0.99 0.33 1.98 0.66 3 1 C1.25 4.875 1.25 4.875 -1 6 C-1.33 5.01 -1.66 4.02 -2 3 C-1.34 2.01 -0.68 1.02 0 0 Z " fill="#B98239" transform="translate(347,208)"/>
<path d="M0 0 C0 3.39593478 -0.52165948 4.06619881 -2.5 6.6875 C-2.9640625 7.31011719 -3.428125 7.93273437 -3.90625 8.57421875 C-4.2671875 9.04472656 -4.628125 9.51523438 -5 10 C-5.66 9.34 -6.32 8.68 -7 8 C-4.69 5.36 -2.38 2.72 0 0 Z " fill="#CDAB7F" transform="translate(365,188)"/>
<path d="M0 0 C2.375 0.25 2.375 0.25 5 1 C6.3125 3.0625 6.3125 3.0625 7 5 C4.0625 4.1875 4.0625 4.1875 1 3 C0.67 2.01 0.34 1.02 0 0 Z " fill="#23221D" transform="translate(52,282)"/>
<path d="M0 0 C1.32 0.99 2.64 1.98 4 3 C3.67 3.99 3.34 4.98 3 6 C1.35 4.35 -0.3 2.7 -2 1 C-1.34 0.67 -0.68 0.34 0 0 Z " fill="#2F6195" transform="translate(386,81)"/>
</svg>
